<svg width="50" height="50" viewBox="0 0 50 50" fill="none" xmlns="http://www.w3.org/2000/svg">
<path fill-rule="evenodd" clip-rule="evenodd" d="M15.645 2.96503L33.92 0.60503C34.695 0.50503 35.415 1.01503 35.58 1.77503L38.875 16.97C39.06 17.825 38.475 18.66 37.61 18.775L19.885 21.145C19.5199 21.1932 19.1498 21.1058 18.8448 20.8994C18.5398 20.6929 18.3211 20.3819 18.23 20.025L14.38 4.82003C14.165 3.95003 14.755 3.08003 15.645 2.96503Z" fill="#9E58FF"/>
<path fill-rule="evenodd" clip-rule="evenodd" d="M30.39 6.11007L46.65 9.71007C47.515 9.90007 48.025 10.7951 47.755 11.6351L42.865 26.7551C42.7499 27.1098 42.5071 27.4091 42.1837 27.5948C41.8603 27.7805 41.4794 27.8394 41.115 27.7601L24.88 24.1901C24.6758 24.1453 24.4833 24.0582 24.3148 23.9346C24.1462 23.811 24.0054 23.6535 23.9014 23.4722C23.7973 23.2909 23.7323 23.0899 23.7105 22.882C23.6888 22.6741 23.7107 22.464 23.775 22.2651L28.64 7.11007C28.754 6.7549 28.9969 6.45528 29.3208 6.2702C29.6447 6.08513 30.0261 6.028 30.39 6.11007Z" fill="url(#paint0_linear_1_20)"/>
<path fill-rule="evenodd" clip-rule="evenodd" d="M12.8601 12.9599L30.3801 9.73989C31.1351 9.59989 31.8751 10.0599 32.0901 10.7949L36.5901 26.3099C36.8401 27.1649 36.2901 28.0499 35.4101 28.2049L17.9901 31.2799C17.2401 31.4099 16.5101 30.9599 16.2901 30.2349L11.6901 14.8649C11.4401 14.0099 11.9851 13.1199 12.8601 12.9599Z" fill="url(#paint1_linear_1_20)"/>
<path fill-rule="evenodd" clip-rule="evenodd" d="M10.525 18.6201L9.88497 16.9501C9.50621 15.8574 8.79579 14.9102 7.85285 14.2406C6.9099 13.571 5.78146 13.2125 4.62497 13.2151H1.59497C1.04497 13.2151 0.594971 13.6651 0.594971 14.2151V15.6551C0.594971 16.2051 1.04497 16.6551 1.59497 16.6551H4.62497C5.06784 16.6514 5.50067 16.7869 5.86227 17.0427C6.22387 17.2984 6.49592 17.6613 6.63997 18.0801L6.83997 18.6201L14.16 38.3851C14.16 38.3851 15.34 41.7301 19.025 41.7301H37.56C41.395 41.7301 42.425 38.3401 42.425 38.3401L48.785 20.6351C49.135 19.6601 48.41 18.6301 47.375 18.6301H10.525V18.6201Z" fill="url(#paint2_linear_1_20)"/>
<path d="M38.695 49.0999C39.4124 49.0999 40.1005 48.815 40.6077 48.3077C41.115 47.8004 41.4 47.1124 41.4 46.3949C41.4 45.6775 41.115 44.9895 40.6077 44.4822C40.1005 43.9749 39.4124 43.6899 38.695 43.6899C37.9776 43.6899 37.2896 43.9749 36.7823 44.4822C36.275 44.9895 35.99 45.6775 35.99 46.3949C35.99 47.1124 36.275 47.8004 36.7823 48.3077C37.2896 48.815 37.9776 49.0999 38.695 49.0999ZM17.975 49.0999C18.6924 49.0999 19.3805 48.815 19.8877 48.3077C20.395 47.8004 20.68 47.1124 20.68 46.3949C20.68 45.6775 20.395 44.9895 19.8877 44.4822C19.3805 43.9749 18.6924 43.6899 17.975 43.6899C17.2576 43.6899 16.5696 43.9749 16.0623 44.4822C15.555 44.9895 15.27 45.6775 15.27 46.3949C15.27 47.1124 15.555 47.8004 16.0623 48.3077C16.5696 48.815 17.2576 49.0999 17.975 49.0999Z" fill="#6061EC"/>
<path fill-rule="evenodd" clip-rule="evenodd" d="M18.855 41.7051C15.02 41.7051 13.99 38.3151 13.99 38.3151L7.68005 20.5651C7.66505 20.5251 7.72005 20.5001 7.74005 20.5301C8.33505 21.3751 13.81 32.3951 19.94 36.0301C25.88 39.5551 36.9851 41.6351 37.6451 41.6551C38.305 41.6751 37.875 41.7201 37.675 41.7201C35.41 41.7701 21.35 41.7051 18.855 41.7051Z" fill="#6061EC"/>
<defs>
<linearGradient id="paint0_linear_1_20" x1="42.6635" y1="2.16007" x2="26.3955" y2="36.9331" gradientUnits="userSpaceOnUse">
<stop offset="0.177" stop-color="#BDDCCB"/>
<stop offset="0.221" stop-color="#B8DCCC"/>
<stop offset="0.271" stop-color="#ABDAD0"/>
<stop offset="0.323" stop-color="#95D8D6"/>
<stop offset="0.377" stop-color="#76D5DF"/>
<stop offset="0.431" stop-color="#4ED1E9"/>
<stop offset="0.465" stop-color="#32CEF1"/>
</linearGradient>
<linearGradient id="paint1_linear_1_20" x1="34.2336" y1="3.76339" x2="19.8471" y2="27.7409" gradientUnits="userSpaceOnUse">
<stop offset="0.223" stop-color="#FDC9C4"/>
<stop offset="0.632" stop-color="#F674EC"/>
</linearGradient>
<linearGradient id="paint2_linear_1_20" x1="46.344" y1="1.0426" x2="10.061" y2="38.1201" gradientUnits="userSpaceOnUse">
<stop stop-color="#FFD1FF"/>
<stop offset="1" stop-color="#4961FF"/>
</linearGradient>
</defs>
</svg>
